<svg width="153" height="40" viewBox="0 0 153 40" fill="none" xmlns="http://www.w3.org/2000/svg">
<path d="M12.5451 7.28132L1.18488 30.5701C-0.49217 34.008 1.1543 37.5564 4.86236 38.4958C8.57049 39.4351 12.9359 37.4095 14.613 33.9716L25.9733 10.6828C27.6504 7.24495 26.0038 3.69635 22.2958 2.75714C18.5877 1.81776 14.2223 3.84346 12.5451 7.28132Z" fill="url(#paint0_linear_377_40)"/>
<path d="M27.2404 6.92412L34.2336 21.2586C35.8793 24.6315 34.264 28.113 30.6259 29.0346C26.9879 29.9563 22.7048 27.9692 21.0593 24.5962L14.066 10.2618C12.4203 6.88885 14.0356 3.40734 17.6737 2.48578C21.3117 1.56403 25.595 3.55118 27.2404 6.92412Z" fill="url(#paint1_linear_377_40)"/>
<path d="M29.4617 6.94383L22.488 21.2381C20.837 24.6221 22.4574 28.1151 26.1073 29.0399C29.7574 29.9646 34.0546 27.9709 35.7057 24.5868L42.6793 10.2926C44.3304 6.90856 42.7098 3.4156 39.0598 2.49094C35.4099 1.5661 31.1126 3.55979 29.4617 6.94383Z" fill="url(#paint2_linear_377_40)"/>
<path d="M44.7188 7.05232L56.1907 30.57C57.8678 34.0079 56.2214 37.5565 52.5133 38.4957C48.8052 39.4351 44.4396 37.4094 42.7625 33.9715L31.2906 10.4538C29.6135 7.01595 31.2601 3.46734 34.9681 2.52814C38.676 1.58876 43.0418 3.61445 44.7188 7.05232Z" fill="url(#paint3_linear_377_40)"/>
<g clipPath="url(#clip0_377_40)">
<path d="M144.008 31.6195C142.301 31.6195 140.797 31.2568 139.495 30.5314C138.215 29.7847 137.223 28.7391 136.519 27.395C135.815 26.0508 135.463 24.4933 135.463 22.7224C135.463 21.0156 135.826 19.5007 136.551 18.1779C137.276 16.8551 138.279 15.8203 139.559 15.0735C140.84 14.3054 142.301 13.9214 143.944 13.9214C145.288 13.9214 146.504 14.1774 147.592 14.6895C148.702 15.1802 149.63 15.8843 150.377 16.8017C151.123 17.7192 151.657 18.786 151.977 20.0021C152.297 21.1969 152.35 22.4877 152.137 23.8746H138.087V21.0582H147.432C147.39 19.8634 147.037 18.9246 146.376 18.2419C145.736 17.5378 144.893 17.1858 143.848 17.1858C143.016 17.1858 142.312 17.3991 141.736 17.8259C141.16 18.2526 140.712 18.882 140.391 19.7141C140.093 20.5248 139.943 21.5276 139.943 22.7224C139.943 23.8959 140.093 24.888 140.391 25.6988C140.69 26.5095 141.138 27.1283 141.736 27.555C142.333 27.9817 143.058 28.1951 143.912 28.1951C144.893 28.1951 145.704 27.9604 146.344 27.491C146.984 27.0216 147.432 26.3709 147.688 25.5388H152.105C151.614 27.459 150.665 28.9526 149.257 30.0193C147.848 31.086 146.099 31.6195 144.008 31.6195Z" fill="white"/>
<path d="M133.546 25.8588C133.546 27.6297 132.884 29.0378 131.562 30.0833C130.26 31.1288 128.393 31.6515 125.961 31.6515C123.55 31.6515 121.662 31.1074 120.296 30.0193C118.952 28.9098 118.195 27.4056 118.024 25.5068H122.28C122.302 26.3815 122.654 27.0856 123.337 27.619C124.041 28.1311 124.937 28.3871 126.025 28.3871C126.9 28.3871 127.625 28.2485 128.201 27.9711C128.777 27.6724 129.065 27.2243 129.065 26.6269C129.065 26.0935 128.884 25.6881 128.521 25.4108C128.158 25.1334 127.561 24.92 126.729 24.7707L123.657 24.1946C122.12 23.9172 120.915 23.3625 120.04 22.5304C119.165 21.6983 118.728 20.6208 118.728 19.298C118.728 18.2312 119.016 17.2924 119.592 16.4817C120.168 15.6709 120.979 15.0415 122.024 14.5935C123.07 14.1454 124.297 13.9214 125.705 13.9214C127.134 13.9214 128.393 14.1668 129.481 14.6575C130.591 15.1269 131.466 15.8096 132.106 16.7057C132.767 17.6018 133.151 18.6579 133.258 19.8741H129.001C128.937 19.042 128.606 18.3913 128.009 17.9219C127.412 17.4311 126.644 17.1858 125.705 17.1858C124.894 17.1858 124.233 17.3351 123.721 17.6338C123.23 17.9112 122.985 18.3273 122.985 18.882C122.985 19.394 123.166 19.7781 123.529 20.0341C123.891 20.2688 124.457 20.4608 125.225 20.6102L128.521 21.2183C130.185 21.5383 131.434 22.0824 132.266 22.8504C133.119 23.6185 133.546 24.6213 133.546 25.8588Z" fill="white"/>
<path d="M110.699 24.1304V14.2412H115.115V31.3312H111.051V29.091C110.603 29.8377 109.931 30.4565 109.035 30.9472C108.138 31.4167 107.146 31.6513 106.058 31.6513C104.927 31.6513 103.914 31.4167 103.018 30.9472C102.122 30.4777 101.418 29.7631 100.906 28.8029C100.393 27.8215 100.137 26.5947 100.137 25.1225V14.2412H104.586V24.2584C104.586 25.4532 104.853 26.328 105.386 26.8827C105.941 27.4374 106.666 27.7148 107.562 27.7148C108.096 27.7148 108.597 27.5761 109.067 27.2988C109.557 27.0214 109.952 26.616 110.251 26.0826C110.549 25.5279 110.699 24.8771 110.699 24.1304Z" fill="white"/>
<path d="M81.4235 31.3318L75.4068 16.0659V31.3318H70.9902V8.35303H76.8149L83.4717 25.3791L90.1605 8.35303H95.9852V31.3318H91.5687V15.9379L85.488 31.3318H81.4235Z" fill="white"/>
</g>
<defs>
<linearGradient id="paint0_linear_377_40" x1="3.97123" y1="38.2486" x2="28.0206" y2="6.70143" gradientUnits="userSpaceOnUse">
<stop stop-color="#69DEC6"/>
<stop offset="1" stop-color="#49C2D4"/>
</linearGradient>
<linearGradient id="paint1_linear_377_40" x1="16.5934" y1="3.02221" x2="43.5295" y2="34.7836" gradientUnits="userSpaceOnUse">
<stop stop-color="#48C2D4"/>
<stop offset="1" stop-color="#1595EA"/>
</linearGradient>
<linearGradient id="paint2_linear_377_40" x1="24.6744" y1="28.8561" x2="60.9967" y2="-12.6986" gradientUnits="userSpaceOnUse">
<stop stop-color="#1695EA"/>
<stop offset="1" stop-color="#548CE7"/>
</linearGradient>
<linearGradient id="paint3_linear_377_40" x1="35.8642" y1="2.02481" x2="60.0415" y2="34.9965" gradientUnits="userSpaceOnUse">
<stop stop-color="#518DE7"/>
<stop offset="1" stop-color="#7687E5"/>
</linearGradient>
<clipPath id="clip0_377_40">
<rect width="82.0098" height="24.0029" fill="white" transform="translate(70.9902 8.00098)"/>
</clipPath>
</defs>
</svg>
